<svg width="36" height="36" viewBox="0 0 36 36" fill="none" xmlns="http://www.w3.org/2000/svg">
<path d="M4.5 10.125C4.5 8.63316 5.09263 7.20242 6.14752 6.14752C7.20242 5.09263 8.63316 4.5 10.125 4.5H25.875C27.3668 4.5 28.7976 5.09263 29.8525 6.14752C30.9074 7.20242 31.5 8.63316 31.5 10.125V22.5H29.853L26.8515 18H29.25V10.125C29.25 9.22989 28.8944 8.37145 28.2615 7.73851C27.6286 7.10558 26.7701 6.75 25.875 6.75H10.125C9.22989 6.75 8.37145 7.10558 7.73851 7.73851C7.10558 8.37145 6.75 9.22989 6.75 10.125V18H9.1485L6.147 22.5H4.5V10.125ZM4.5 25.875V24.75H11.9385L9.69525 31.4842C8.28182 31.3759 6.9614 30.738 5.99815 29.698C5.03489 28.6579 4.49983 27.2926 4.5 25.875ZM14.31 24.75H21.69L23.94 31.5H12.06L14.31 24.75ZM15.0615 22.5H20.9385L19.44 18H16.56L15.0615 22.5ZM24.0615 24.75H31.5V25.875C31.5002 27.2926 30.9651 28.6579 30.0019 29.698C29.0386 30.738 27.7182 31.3759 26.3048 31.4842L24.0615 24.75ZM23.31 22.5H27.1485L24.147 18H21.8115L23.31 22.5ZM8.8515 22.5H12.69L14.1885 18H11.853L8.8515 22.5Z" fill="#E8612D"/>
</svg>
