<svg width="144" height="144" viewBox="0 0 144 144" fill="none" xmlns="http://www.w3.org/2000/svg">
<path d="M18 40.5C18 34.5326 20.3705 28.8097 24.5901 24.5901C28.8097 20.3705 34.5326 18 40.5 18H103.5C109.467 18 115.19 20.3705 119.41 24.5901C123.629 28.8097 126 34.5326 126 40.5V90H119.412L107.406 72H117V40.5C117 36.9196 115.578 33.4858 113.046 30.9541C110.514 28.4223 107.08 27 103.5 27H40.5C36.9196 27 33.4858 28.4223 30.9541 30.9541C28.4223 33.4858 27 36.9196 27 40.5V72H36.594L24.588 90H18V40.5ZM18 103.5V99H47.754L38.781 125.937C33.1273 125.504 27.8456 122.952 23.9926 118.792C20.1396 114.632 17.9993 109.17 18 103.5ZM57.24 99H86.76L95.76 126H48.24L57.24 99ZM60.246 90H83.754L77.76 72H66.24L60.246 90ZM96.246 99H126V103.5C126.001 109.17 123.86 114.632 120.007 118.792C116.154 122.952 110.873 125.504 105.219 125.937L96.246 99ZM93.24 90H108.594L96.588 72H87.246L93.24 90ZM35.406 90H50.76L56.754 72H47.412L35.406 90Z" fill="#E8612D"/>
</svg>
