<svg width="36" height="36" viewBox="0 0 36 36" fill="none" xmlns="http://www.w3.org/2000/svg">
<path d="M10.5 13.5V9C10.5 8.20435 10.8161 7.44129 11.3787 6.87868C11.9413 6.31607 12.7044 6 13.5 6H28.5C29.2956 6 30.0587 6.31607 30.6213 6.87868C31.1839 7.44129 31.5 8.20435 31.5 9V27C31.5 27.7956 31.1839 28.5587 30.6213 29.1213C30.0587 29.6839 29.2956 30 28.5 30H19.5M19.5 30V20.742C19.4998 19.9464 19.1836 19.1835 18.621 18.621L14.121 14.121C13.5584 13.5586 12.7955 13.2426 12 13.2426C11.2045 13.2426 10.4416 13.5586 9.879 14.121L5.379 18.621C4.81635 19.1835 4.50017 19.9464 4.5 20.742V27C4.5 27.7956 4.81607 28.5587 5.37868 29.1213C5.94129 29.6839 6.70435 30 7.5 30H12M19.5 30H12M12 30V24M25.503 18H25.5" stroke="#E8612D" stroke-width="2" stroke-linecap="round" stroke-linejoin="round"/>
</svg>
