<svg width="143" height="143" viewBox="0 0 143 143" fill="none" xmlns="http://www.w3.org/2000/svg">
<path d="M41.457 53.2988V35.5332C41.457 32.392 42.7049 29.3795 44.926 27.1584C47.1471 24.9373 50.1596 23.6895 53.3008 23.6895H112.52C115.661 23.6895 118.673 24.9373 120.894 27.1584C123.115 29.3795 124.363 32.392 124.363 35.5332V106.596C124.363 109.737 123.115 112.749 120.894 114.97C118.673 117.192 115.661 118.439 112.52 118.439H76.9883M76.9883 118.439V81.8896C76.9876 78.7487 75.7393 75.7367 73.5181 73.5161L55.7524 55.7505C53.5314 53.5301 50.5194 52.2828 47.3789 52.2828C44.2384 52.2828 41.2264 53.5301 39.0054 55.7505L21.2397 73.5161C19.0185 75.7367 17.7702 78.7487 17.7695 81.8896V106.596C17.7695 109.737 19.0174 112.749 21.2385 114.97C23.4596 117.192 26.4721 118.439 29.6133 118.439H47.3789M76.9883 118.439H47.3789M47.3789 118.439V94.752M100.688 71.0645H100.676" stroke="black" stroke-width="7.89583" stroke-linecap="round" stroke-linejoin="round"/>
</svg>
