<svg width="32" height="15" viewBox="0 0 32 15" fill="none" xmlns="http://www.w3.org/2000/svg">
<path d="M0 13.1008V11.5768C0 10.7451 0.434293 10.062 1.30288 9.52755C2.17147 8.99309 3.30367 8.72587 4.6995 8.72587C4.93026 8.72587 5.16263 8.73308 5.39661 8.7475C5.63058 8.76193 5.86616 8.78997 6.10334 8.83164C5.85975 9.22106 5.67906 9.6253 5.56128 10.0444C5.44349 10.4634 5.3846 10.8933 5.3846 11.334V13.1008H0ZM7.5 13.1008V11.3821C7.5 10.7969 7.66426 10.262 7.99278 9.77733C8.32131 9.2927 8.79486 8.8701 9.41345 8.50953C10.032 8.14896 10.7628 7.87853 11.6057 7.69824C12.4487 7.51795 13.3702 7.42781 14.3701 7.42781C15.3894 7.42781 16.3205 7.51795 17.1634 7.69824C18.0063 7.87853 18.7371 8.14896 19.3557 8.50953C19.9743 8.8701 20.4446 9.2927 20.7667 9.77733C21.0889 10.262 21.2499 10.7969 21.2499 11.3821V13.1008H7.5ZM23.3653 13.1008V11.3376C23.3653 10.8674 23.3096 10.4244 23.1982 10.0084C23.0869 9.59249 22.9198 9.20022 22.6971 8.83164C22.9422 8.78997 23.1766 8.76193 23.4002 8.7475C23.6237 8.73308 23.8445 8.72587 24.0624 8.72587C25.4583 8.72587 26.5885 8.98989 27.453 9.51793C28.3176 10.046 28.7499 10.7323 28.7499 11.5768V13.1008H23.3653ZM9.4711 11.2259H19.298V11.0936C19.1698 10.5888 18.6378 10.1641 17.7019 9.8196C16.766 9.47504 15.657 9.30276 14.375 9.30276C13.0929 9.30276 11.9839 9.47504 11.048 9.8196C10.1121 10.1641 9.58648 10.5888 9.4711 11.0936V11.2259ZM4.69631 7.51193C4.10709 7.51193 3.60376 7.30245 3.18629 6.88348C2.76883 6.46452 2.5601 5.96087 2.5601 5.37253C2.5601 4.77639 2.76958 4.27279 3.18855 3.86173C3.60751 3.45068 4.11116 3.24516 4.6995 3.24516C5.29564 3.24516 5.80125 3.45068 6.2163 3.86173C6.63136 4.27279 6.83889 4.77758 6.83889 5.37612C6.83889 5.95705 6.63356 6.45826 6.2229 6.87972C5.81224 7.30119 5.30337 7.51193 4.69631 7.51193ZM24.0624 7.51193C23.4791 7.51193 22.9767 7.30119 22.5552 6.87972C22.1338 6.45826 21.923 5.95705 21.923 5.37612C21.923 4.77758 22.1338 4.27279 22.5552 3.86173C22.9767 3.45068 23.4799 3.24516 24.0648 3.24516C24.6674 3.24516 25.1742 3.45068 25.5852 3.86173C25.9963 4.27279 26.2018 4.77639 26.2018 5.37253C26.2018 5.96087 25.9968 6.46452 25.5868 6.88348C25.1767 7.30245 24.6686 7.51193 24.0624 7.51193ZM14.3792 6.49031C13.4789 6.49031 12.7123 6.17481 12.0793 5.54381C11.4463 4.9128 11.1298 4.14659 11.1298 3.24516C11.1298 2.3257 11.4453 1.55497 12.0763 0.932983C12.7073 0.310994 13.4735 0 14.375 0C15.2944 0 16.0651 0.310588 16.6871 0.931763C17.3091 1.55294 17.6201 2.32265 17.6201 3.24091C17.6201 4.14117 17.3095 4.9078 16.6883 5.5408C16.0672 6.17381 15.2975 6.49031 14.3792 6.49031ZM14.381 4.61536C14.7632 4.61536 15.0861 4.48154 15.3497 4.21391C15.6133 3.94628 15.7452 3.62136 15.7452 3.23915C15.7452 2.85693 15.6138 2.53401 15.3512 2.27039C15.0886 2.00677 14.7632 1.87495 14.375 1.87495C13.9967 1.87495 13.6738 2.00626 13.4062 2.26889C13.1386 2.53151 13.0048 2.85693 13.0048 3.24516C13.0048 3.62336 13.1386 3.94628 13.4062 4.21391C13.6738 4.48154 13.9988 4.61536 14.381 4.61536Z" fill="#E8612D"/>
</svg>
