<svg width="136" height="136" viewBox="0 0 136 136" fill="none" xmlns="http://www.w3.org/2000/svg">
<g clip-path="url(#clip0_1130_2743)">
<path d="M115.583 14.1392C98.9181 14.1392 83.9584 11.1182 70.4593 -2.40812C69.4387 -3.42745 68.0552 -4 66.6128 -4C65.1703 -4 63.7869 -3.42745 62.7663 -2.40812C49.2309 11.1182 34.2621 14.1392 17.6151 14.1392C16.1714 14.1392 14.7869 14.7126 13.7661 15.7334C12.7454 16.7542 12.1719 18.1387 12.1719 19.5823V52.2596C12.1719 87.2955 30.0437 111.109 64.88 122.731C65.9988 123.104 67.2086 123.104 68.3274 122.731C103.173 111.119 121.036 87.2955 121.036 52.2596V19.5823C121.036 16.5795 118.586 14.1392 115.583 14.1392ZM111.954 52.2505C111.954 83.0589 97.1127 103.181 66.5946 113.722C36.0765 103.181 21.2348 83.0589 21.2348 52.2505V23.1658C35.5594 22.812 51.644 19.9996 66.6037 6.44612C81.5362 19.9906 97.6298 22.8029 111.954 23.1658V52.2505ZM62.0496 66.6931L86.054 42.6886C86.4758 42.2669 86.9764 41.9324 87.5275 41.7041C88.0785 41.4759 88.6691 41.3584 89.2655 41.3584C89.8619 41.3584 90.4525 41.4759 91.0035 41.7041C91.5545 41.9324 92.0552 42.2669 92.477 42.6886C92.8987 43.1104 93.2332 43.6111 93.4615 44.1621C93.6897 44.7131 93.8072 45.3037 93.8072 45.9001C93.8072 46.4965 93.6897 47.0871 93.4615 47.6382C93.2332 48.1892 92.8987 48.6899 92.477 49.1116L65.2611 76.3275C64.8397 76.7499 64.3391 77.0851 63.7881 77.3138C63.237 77.5424 62.6462 77.6601 62.0496 77.6601C61.4529 77.6601 60.8622 77.5424 60.3111 77.3138C59.76 77.0851 59.2594 76.7499 58.8381 76.3275L45.2301 62.7196C44.3784 61.8678 43.8999 60.7126 43.8999 59.5081C43.8999 58.3035 44.3784 57.1483 45.2301 56.2966C46.0819 55.4449 47.2371 54.9664 48.4416 54.9664C49.6462 54.9664 50.8014 55.4449 51.6531 56.2966L62.0496 66.6931Z" fill="#E8612D"/>
</g>
<defs>
<clipPath id="clip0_1130_2743">
<rect width="135.469" height="135.469" fill="white"/>
</clipPath>
</defs>
</svg>
