<svg width="36" height="36" viewBox="0 0 36 36" fill="none" xmlns="http://www.w3.org/2000/svg">
<path d="M30.1497 6.75077C26.0165 6.75077 22.3062 6.00152 18.9582 2.64677C18.7051 2.39395 18.362 2.25195 18.0042 2.25195C17.6465 2.25195 17.3033 2.39395 17.0502 2.64677C13.6932 6.00152 9.9807 6.75077 5.85195 6.75077C5.49391 6.75077 5.15053 6.893 4.89736 7.14617C4.64418 7.39935 4.50195 7.74272 4.50195 8.10077V16.2053C4.50195 24.8948 8.93445 30.801 17.5745 33.6833C17.8519 33.7759 18.152 33.7759 18.4295 33.6833C27.0717 30.8033 31.502 24.8948 31.502 16.2053V8.10077C31.502 7.35602 30.8945 6.75077 30.1497 6.75077ZM29.2497 16.203C29.2497 23.844 25.5687 28.8345 17.9997 31.449C10.4307 28.8345 6.7497 23.844 6.7497 16.203V8.98952C10.3025 8.90177 14.2917 8.20427 18.002 4.84277C21.7055 8.20201 25.697 8.89952 29.2497 8.98952V16.203ZM16.8725 19.785L22.826 13.8315C22.9306 13.7269 23.0547 13.6439 23.1914 13.5873C23.3281 13.5307 23.4745 13.5016 23.6225 13.5016C23.7704 13.5016 23.9169 13.5307 24.0535 13.5873C24.1902 13.6439 24.3144 13.7269 24.419 13.8315C24.5236 13.9361 24.6065 14.0603 24.6631 14.197C24.7197 14.3336 24.7489 14.4801 24.7489 14.628C24.7489 14.7759 24.7197 14.9224 24.6631 15.0591C24.6065 15.1957 24.5236 15.3199 24.419 15.4245L17.669 22.1745C17.5645 22.2793 17.4403 22.3624 17.3036 22.4191C17.167 22.4758 17.0204 22.505 16.8725 22.505C16.7245 22.505 16.578 22.4758 16.4413 22.4191C16.3046 22.3624 16.1805 22.2793 16.076 22.1745L12.701 18.7995C12.4897 18.5883 12.371 18.3018 12.371 18.003C12.371 17.7043 12.4897 17.4178 12.701 17.2065C12.9122 16.9953 13.1987 16.8766 13.4975 16.8766C13.7962 16.8766 14.0827 16.9953 14.294 17.2065L16.8725 19.785Z" fill="#E8612D"/>
</svg>
