<svg width="26" height="24" viewBox="0 0 26 24" fill="none" xmlns="http://www.w3.org/2000/svg">
<path d="M21.2499 6.12975C21.564 6.12975 21.8308 6.01998 22.0504 5.80043C22.2699 5.58088 22.3797 5.31405 22.3797 4.99995C22.3797 4.68585 22.2699 4.41903 22.0504 4.19948C21.8308 3.97993 21.564 3.87016 21.2499 3.87016C20.9358 3.87016 20.669 3.97993 20.4494 4.19948C20.2299 4.41903 20.1201 4.68585 20.1201 4.99995C20.1201 5.31405 20.2299 5.58088 20.4494 5.80043C20.669 6.01998 20.9358 6.12975 21.2499 6.12975ZM16.2499 6.12975C16.564 6.12975 16.8308 6.01998 17.0504 5.80043C17.2699 5.58088 17.3797 5.31405 17.3797 4.99995C17.3797 4.68585 17.2699 4.41903 17.0504 4.19948C16.8308 3.97993 16.564 3.87016 16.2499 3.87016C15.9358 3.87016 15.669 3.97993 15.4494 4.19948C15.2299 4.41903 15.1201 4.68585 15.1201 4.99995C15.1201 5.31405 15.2299 5.58088 15.4494 5.80043C15.669 6.01998 15.9358 6.12975 16.2499 6.12975ZM15.7691 10.3798H21.7307C21.6906 9.73873 21.3749 9.22271 20.7836 8.83169C20.1922 8.44067 19.5143 8.24516 18.7499 8.24516C17.9695 8.24516 17.2836 8.44067 16.6922 8.83169C16.1009 9.22271 15.7932 9.73873 15.7691 10.3798ZM6.87778 23.7499C4.96886 23.7499 3.34533 23.0815 2.0072 21.7447C0.669066 20.4079 0 18.7847 0 16.875V8.75H13.7499V16.875C13.7499 18.7847 13.0818 20.4079 11.7455 21.7447C10.4093 23.0815 8.78671 23.7499 6.87778 23.7499ZM6.87495 21.875C8.24995 21.875 9.42704 21.3854 10.4062 20.4062C11.3854 19.427 11.875 18.25 11.875 16.875V10.625H1.87495V16.875C1.87495 18.25 2.36454 19.427 3.3437 20.4062C4.32287 21.3854 5.49995 21.875 6.87495 21.875ZM18.7499 14.9999C18.2002 14.9999 17.6457 14.9326 17.0864 14.798C16.5271 14.6634 16.032 14.4695 15.6009 14.2162L15.6249 12C16.0784 12.3541 16.568 12.6302 17.0936 12.8281C17.6193 13.026 18.1714 13.125 18.7499 13.125C20.1249 13.125 21.302 12.6354 22.2812 11.6562C23.2603 10.677 23.7499 9.49995 23.7499 8.12495V1.87495H13.7499V6.875H11.875V0H25.6249V8.12495C25.6249 10.0347 24.9565 11.6579 23.6197 12.9947C22.2829 14.3315 20.6596 14.9999 18.7499 14.9999ZM4.37495 14.8798C4.68905 14.8798 4.95588 14.77 5.17543 14.5504C5.39498 14.3309 5.50475 14.0641 5.50475 13.75C5.50475 13.4359 5.39498 13.169 5.17543 12.9495C4.95588 12.7299 4.68905 12.6202 4.37495 12.6202C4.06085 12.6202 3.79403 12.7299 3.57448 12.9495C3.35493 13.169 3.24516 13.4359 3.24516 13.75C3.24516 14.0641 3.35493 14.3309 3.57448 14.5504C3.79403 14.77 4.06085 14.8798 4.37495 14.8798ZM9.37495 14.8798C9.68905 14.8798 9.95588 14.77 10.1754 14.5504C10.395 14.3309 10.5048 14.0641 10.5048 13.75C10.5048 13.4359 10.395 13.169 10.1754 12.9495C9.95588 12.7299 9.68905 12.6202 9.37495 12.6202C9.06085 12.6202 8.79403 12.7299 8.57448 12.9495C8.35493 13.169 8.24516 13.4359 8.24516 13.75C8.24516 14.0641 8.35493 14.3309 8.57448 14.5504C8.79403 14.77 9.06085 14.8798 9.37495 14.8798ZM6.87495 19.1298C7.6554 19.1298 8.3413 18.9342 8.93264 18.5432C9.52398 18.1522 9.83167 17.6362 9.85571 16.9952H3.8942C3.91824 17.6362 4.22593 18.1522 4.81727 18.5432C5.40861 18.9342 6.09451 19.1298 6.87495 19.1298Z" fill="#E8612D"/>
</svg>
