<svg width="121" height="121" viewBox="0 0 121 121" fill="none" xmlns="http://www.w3.org/2000/svg">
<path d="M85.7083 20.1673C84.3712 20.1673 83.0888 19.6361 82.1433 18.6906C81.1978 17.7452 80.6667 16.4628 80.6667 15.1257C80.6667 13.7885 81.1978 12.5062 82.1433 11.5607C83.0888 10.6152 84.3712 10.084 85.7083 10.084H105.875C107.212 10.084 108.494 10.6152 109.44 11.5607C110.385 12.5062 110.917 13.7885 110.917 15.1257V35.2923C110.917 36.6295 110.385 37.9118 109.44 38.8573C108.494 39.8028 107.212 40.334 105.875 40.334C104.538 40.334 103.255 39.8028 102.31 38.8573C101.365 37.9118 100.833 36.6295 100.833 35.2923V27.2962L71.627 56.5026C70.6815 57.4478 69.3994 57.9787 68.0625 57.9787C66.7256 57.9787 65.4435 57.4478 64.498 56.5026L50.4167 42.4212L23.7311 69.1068C22.7803 70.0252 21.5067 70.5333 20.1848 70.5218C18.8629 70.5104 17.5984 69.9801 16.6636 69.0454C15.7289 68.1106 15.1986 66.8461 15.1871 65.5242C15.1757 64.2023 15.6838 62.9287 16.6022 61.9779L46.8522 31.7279C47.7977 30.7827 49.0798 30.2517 50.4167 30.2517C51.7535 30.2517 53.0357 30.7827 53.9811 31.7279L68.0625 45.8092L93.7044 20.1673H85.7083ZM25.2083 90.7507V105.876C25.2083 107.213 24.6772 108.495 23.7317 109.441C22.7862 110.386 21.5038 110.917 20.1667 110.917C18.8295 110.917 17.5472 110.386 16.6017 109.441C15.6562 108.495 15.125 107.213 15.125 105.876V90.7507C15.125 89.4135 15.6562 88.1311 16.6017 87.1857C17.5472 86.2402 18.8295 85.709 20.1667 85.709C21.5038 85.709 22.7862 86.2402 23.7317 87.1857C24.6772 88.1311 25.2083 89.4135 25.2083 90.7507ZM50.4167 70.584C50.4167 69.2469 49.8855 67.9645 48.94 67.019C47.9945 66.0735 46.7121 65.5423 45.375 65.5423C44.0379 65.5423 42.7555 66.0735 41.81 67.019C40.8645 67.9645 40.3333 69.2469 40.3333 70.584V105.876C40.3333 107.213 40.8645 108.495 41.81 109.441C42.7555 110.386 44.0379 110.917 45.375 110.917C46.7121 110.917 47.9945 110.386 48.94 109.441C49.8855 108.495 50.4167 107.213 50.4167 105.876V70.584ZM70.5833 75.6257C71.9205 75.6257 73.2028 76.1568 74.1483 77.1023C75.0938 78.0478 75.625 79.3302 75.625 80.6673V105.876C75.625 107.213 75.0938 108.495 74.1483 109.441C73.2028 110.386 71.9205 110.917 70.5833 110.917C69.2462 110.917 67.9638 110.386 67.0183 109.441C66.0728 108.495 65.5417 107.213 65.5417 105.876V80.6673C65.5417 79.3302 66.0728 78.0478 67.0183 77.1023C67.9638 76.1568 69.2462 75.6257 70.5833 75.6257ZM100.833 55.459C100.833 54.1219 100.302 52.8395 99.3567 51.894C98.4112 50.9485 97.1288 50.4173 95.7917 50.4173C94.4545 50.4173 93.1722 50.9485 92.2267 51.894C91.2812 52.8395 90.75 54.1219 90.75 55.459V105.876C90.75 107.213 91.2812 108.495 92.2267 109.441C93.1722 110.386 94.4545 110.917 95.7917 110.917C97.1288 110.917 98.4112 110.386 99.3567 109.441C100.302 108.495 100.833 107.213 100.833 105.876V55.459Z" fill="black"/>
</svg>
