<svg width="36" height="36" viewBox="0 0 36 36" fill="none" xmlns="http://www.w3.org/2000/svg">
<path d="M25.5 6C25.1022 6 24.7206 5.84196 24.4393 5.56066C24.158 5.27936 24 4.89782 24 4.5C24 4.10218 24.158 3.72064 24.4393 3.43934C24.7206 3.15804 25.1022 3 25.5 3H31.5C31.8978 3 32.2794 3.15804 32.5607 3.43934C32.842 3.72064 33 4.10218 33 4.5V10.5C33 10.8978 32.842 11.2794 32.5607 11.5607C32.2794 11.842 31.8978 12 31.5 12C31.1022 12 30.7206 11.842 30.4393 11.5607C30.158 11.2794 30 10.8978 30 10.5V8.121L21.3105 16.8105C21.0292 17.0917 20.6477 17.2497 20.25 17.2497C19.8523 17.2497 19.4708 17.0917 19.1895 16.8105L15 12.621L7.0605 20.5605C6.7776 20.8337 6.39869 20.9849 6.0054 20.9815C5.6121 20.9781 5.23588 20.8203 4.95777 20.5422C4.67966 20.2641 4.52191 19.8879 4.51849 19.4946C4.51507 19.1013 4.66626 18.7224 4.9395 18.4395L13.9395 9.4395C14.2208 9.15829 14.6023 9.00032 15 9.00032C15.3977 9.00032 15.7792 9.15829 16.0605 9.4395L20.25 13.629L27.879 6H25.5ZM7.5 27V31.5C7.5 31.8978 7.34196 32.2794 7.06066 32.5607C6.77936 32.842 6.39782 33 6 33C5.60218 33 5.22064 32.842 4.93934 32.5607C4.65804 32.2794 4.5 31.8978 4.5 31.5V27C4.5 26.6022 4.65804 26.2206 4.93934 25.9393C5.22064 25.658 5.60218 25.5 6 25.5C6.39782 25.5 6.77936 25.658 7.06066 25.9393C7.34196 26.2206 7.5 26.6022 7.5 27ZM15 21C15 20.6022 14.842 20.2206 14.5607 19.9393C14.2794 19.658 13.8978 19.5 13.5 19.5C13.1022 19.5 12.7206 19.658 12.4393 19.9393C12.158 20.2206 12 20.6022 12 21V31.5C12 31.8978 12.158 32.2794 12.4393 32.5607C12.7206 32.842 13.1022 33 13.5 33C13.8978 33 14.2794 32.842 14.5607 32.5607C14.842 32.2794 15 31.8978 15 31.5V21ZM21 22.5C21.3978 22.5 21.7794 22.658 22.0607 22.9393C22.342 23.2206 22.5 23.6022 22.5 24V31.5C22.5 31.8978 22.342 32.2794 22.0607 32.5607C21.7794 32.842 21.3978 33 21 33C20.6022 33 20.2206 32.842 19.9393 32.5607C19.658 32.2794 19.5 31.8978 19.5 31.5V24C19.5 23.6022 19.658 23.2206 19.9393 22.9393C20.2206 22.658 20.6022 22.5 21 22.5ZM30 16.5C30 16.1022 29.842 15.7206 29.5607 15.4393C29.2794 15.158 28.8978 15 28.5 15C28.1022 15 27.7206 15.158 27.4393 15.4393C27.158 15.7206 27 16.1022 27 16.5V31.5C27 31.8978 27.158 32.2794 27.4393 32.5607C27.7206 32.842 28.1022 33 28.5 33C28.8978 33 29.2794 32.842 29.5607 32.5607C29.842 32.2794 30 31.8978 30 31.5V16.5Z" fill="#E8612D"/>
</svg>
