<svg width="25" height="27" viewBox="0 0 25 27" fill="none" xmlns="http://www.w3.org/2000/svg">
<path d="M3.75 23.7499V18.7115C2.5625 17.6281 1.64062 16.3866 0.984375 14.9867C0.328125 13.5869 0 12.129 0 10.6129C0 7.66423 1.03365 5.15823 3.10095 3.09494C5.16825 1.03165 7.67625 0 10.625 0C13.0528 0 15.2239 0.725558 17.1381 2.17667C19.0524 3.62779 20.2956 5.51039 20.8677 7.82449L22.3244 13.5937C22.4206 13.9494 22.3557 14.2728 22.1297 14.5636C21.9037 14.8545 21.6025 14.9999 21.2259 14.9999H18.7499V18.9903C18.7499 19.6137 18.5292 20.1462 18.0877 20.5877C17.6462 21.0292 17.1137 21.2499 16.4903 21.2499H13.7499V23.7499H11.875V19.375H16.4903C16.6025 19.375 16.6947 19.3389 16.7668 19.2668C16.8389 19.1947 16.875 19.1025 16.875 18.9903V13.125H20.25L19.0625 8.2812C18.5833 6.37736 17.5584 4.83369 15.9879 3.65019C14.4174 2.4667 12.6298 1.87495 10.625 1.87495C8.20829 1.87495 6.14579 2.72071 4.43745 4.41221C2.72912 6.10372 1.87495 8.15781 1.87495 10.5745C1.87495 11.8245 2.13016 13.01 2.64058 14.131C3.151 15.252 3.87495 16.25 4.81245 17.125L5.62495 17.875V23.7499H3.75ZM9.65142 15.3605H11.5985L11.7379 14.0024C11.9847 13.9399 12.2159 13.8489 12.4314 13.7295C12.647 13.6101 12.8309 13.4623 12.9831 13.286L14.2043 13.8509L15.1778 12.1947L14.0961 11.3894C14.1858 11.1346 14.2307 10.8798 14.2307 10.625C14.2307 10.3701 14.1858 10.1153 14.0961 9.86051L15.1778 9.05523L14.2043 7.39902L12.9831 7.96392C12.8309 7.78763 12.647 7.63979 12.4314 7.5204C12.2159 7.401 11.9847 7.31005 11.7379 7.24755L11.5985 5.8894H9.65142L9.512 7.24755C9.2652 7.31005 9.03402 7.401 8.81847 7.5204C8.60292 7.63979 8.41902 7.78763 8.26677 7.96392L7.04564 7.39902L6.0721 9.05523L7.15382 9.86051C7.06407 10.1153 7.0192 10.3701 7.0192 10.625C7.0192 10.8798 7.06407 11.1346 7.15382 11.3894L6.0721 12.1947L7.04564 13.8509L8.26677 13.286C8.41902 13.4623 8.60292 13.6101 8.81847 13.7295C9.03402 13.8489 9.2652 13.9399 9.512 14.0024L9.65142 15.3605ZM10.625 12.7283C10.04 12.7283 9.54321 12.524 9.13456 12.1154C8.7259 11.7067 8.52157 11.2099 8.52157 10.625C8.52157 10.04 8.7259 9.54321 9.13456 9.13456C9.54321 8.7259 10.04 8.52157 10.625 8.52157C11.2099 8.52157 11.7067 8.7259 12.1154 9.13456C12.524 9.54321 12.7283 10.04 12.7283 10.625C12.7283 11.2099 12.524 11.7067 12.1154 12.1154C11.7067 12.524 11.2099 12.7283 10.625 12.7283Z" fill="#E8612D"/>
</svg>
