<svg width="136" height="136" viewBox="0 0 136 136" fill="none" xmlns="http://www.w3.org/2000/svg">
<g clip-path="url(#clip0_1130_2757)">
<path d="M34.0471 31.1652V52.3065L53.9569 65.8974L73.8667 52.3065V31.1652L53.9569 17.5743L34.0471 31.1652ZM34.0471 31.1652L18.7621 15.6414M97.7357 91.9616L63.7867 59.1865M102.309 41.7359H73.8667M42.3068 57.9482L18.0169 85.4622M89.8969 4.04991L68.9291 27.7947M22.6701 13.044L11.293 20.5945L-0.0839844 13.044V0.963272L11.293 -6.5872L22.6701 0.963272V13.044ZM107.998 0.963272L96.6208 8.51375L85.2437 0.963272V-11.1175L96.6208 -18.668L107.998 -11.1175V0.963272ZM22.6701 100.63L11.293 108.18L-0.0839844 100.63V88.5488L11.293 80.9983L22.6701 88.5488V100.63ZM116.531 106.67L105.154 114.22L93.7765 106.67V94.5892L105.154 87.0387L116.531 94.5892V106.67ZM125.063 47.7762L113.686 55.3267L102.309 47.7762V35.6955L113.686 28.145L125.063 35.6955V47.7762Z" stroke="#E8612D" stroke-width="5.16071" stroke-miterlimit="10" stroke-linecap="round" stroke-linejoin="round"/>
</g>
<defs>
<clipPath id="clip0_1130_2757">
<rect width="135.469" height="135.469" fill="white"/>
</clipPath>
</defs>
</svg>
