<svg width="36" height="36" viewBox="0 0 36 36" fill="none" xmlns="http://www.w3.org/2000/svg">
<path d="M12.2031 14.9189V19.1436L16.4277 21.8594L20.6523 19.1436V14.9189L16.4277 12.2031L12.2031 14.9189ZM12.2031 14.9189L8.95983 11.8169M25.717 27.0677L18.5135 20.5184M26.6875 17.0312H20.6523M13.9557 20.2709L8.80171 25.7689M24.0538 9.50058L19.6046 14.2454M9.78906 11.2979L7.375 12.8066L4.96094 11.2979V8.88379L7.375 7.375L9.78906 8.88379V11.2979ZM27.8945 8.88379L25.4805 10.3926L23.0664 8.88379V6.46973L25.4805 4.96094L27.8945 6.46973V8.88379ZM9.78906 28.7998L7.375 30.3086L4.96094 28.7998V26.3857L7.375 24.877L9.78906 26.3857V28.7998ZM29.7051 30.0068L27.291 31.5156L24.877 30.0068V27.5928L27.291 26.084L29.7051 27.5928V30.0068ZM31.5156 18.2383L29.1016 19.7471L26.6875 18.2383V15.8242L29.1016 14.3154L31.5156 15.8242V18.2383Z" stroke="#E8612D" stroke-width="1.5" stroke-miterlimit="10" stroke-linecap="round" stroke-linejoin="round"/>
</svg>
