<svg width="24" height="23" viewBox="0 0 24 23" fill="none" xmlns="http://www.w3.org/2000/svg">
<path d="M11.8509 22.9325C10.4406 22.7615 9.03996 22.3862 7.64897 21.8067C6.25798 21.2271 5.008 20.3897 3.89903 19.2943C2.79007 18.199 1.88101 16.8132 1.17188 15.1369C0.462748 13.4606 0.0801341 11.4438 0.0240402 9.08647L0 7.95667L1.10576 7.98071C2.0721 8.00475 3.1358 8.18224 4.29686 8.51317C5.45792 8.84411 6.49197 9.29644 7.39902 9.87016C7.5769 8.19068 8.05445 6.44629 8.83169 4.637C9.60893 2.82771 10.5432 1.28205 11.6346 0C12.7259 1.28205 13.6602 2.83172 14.4374 4.64902C15.2147 6.46633 15.6922 8.21472 15.8701 9.8942C16.7531 9.34452 17.7671 8.89419 18.9121 8.54322C20.0572 8.19226 21.1329 8.00475 22.1393 7.98071L23.2691 7.95667L23.2451 9.11051C23.213 11.2435 22.8965 13.1061 22.2956 14.6982C21.6946 16.2903 20.8837 17.6421 19.8629 18.7534C18.8421 19.8648 17.649 20.7602 16.2836 21.4397C14.9182 22.1192 13.4407 22.6168 11.8509 22.9325ZM11.8125 21.0191C11.5833 17.5608 10.5572 14.9462 8.73433 13.1754C6.91141 11.4045 4.64579 10.3108 1.93745 9.89413C2.16662 13.4566 3.22391 16.1129 5.10933 17.8629C6.99475 19.6129 9.22912 20.665 11.8125 21.0191ZM11.6346 13.899C11.931 13.4086 12.3012 12.8986 12.7451 12.3689C13.189 11.8393 13.6313 11.3894 14.0721 11.0192C14.0464 9.78359 13.8201 8.49393 13.393 7.15017C12.9659 5.80642 12.3797 4.50794 11.6346 3.25473C10.8894 4.50794 10.3032 5.80642 9.87614 7.15017C9.44905 8.49393 9.22269 9.78359 9.19705 11.0192C9.63776 11.3894 10.0813 11.8393 10.5276 12.3689C10.9739 12.8986 11.3429 13.4086 11.6346 13.899ZM13.6874 20.5287C14.5624 20.2387 15.4326 19.838 16.298 19.3268C17.1634 18.8156 17.9535 18.1425 18.6682 17.3076C19.3829 16.4726 19.9815 15.4486 20.4639 14.2355C20.9462 13.0223 21.2355 11.5752 21.3316 9.89413C19.3413 10.1858 17.5824 10.8669 16.0552 11.9374C14.528 13.0079 13.3925 14.3445 12.6489 15.947C12.8989 16.6137 13.1085 17.3148 13.2776 18.0504C13.4466 18.786 13.5832 19.6121 13.6874 20.5287Z" fill="#E8612D"/>
</svg>
