<svg width="33" height="32" viewBox="0 0 33 32" fill="none" xmlns="http://www.w3.org/2000/svg">
<path d="M7.18748 28.125C6.23396 28.125 5.42267 27.7904 4.7536 27.1214C4.08453 26.4523 3.75 25.641 3.75 24.6875C3.75 23.734 4.08453 22.9227 4.7536 22.2536C5.42267 21.5845 6.23396 21.25 7.18748 21.25C7.4551 21.25 7.71792 21.2833 7.97594 21.3498C8.23395 21.4163 8.47754 21.5056 8.70671 21.6178L11.1851 18.5336C10.6659 17.9679 10.3077 17.3349 10.1106 16.6346C9.9135 15.9343 9.87344 15.2299 9.99043 14.5216L6.38939 13.3293C6.07529 13.8341 5.66143 14.2387 5.14781 14.5432C4.63419 14.8477 4.06408 15 3.43748 15C2.48396 15 1.67267 14.6654 1.0036 13.9964C0.334533 13.3273 0 12.516 0 11.5625C0 10.609 0.334533 9.79767 1.0036 9.1286C1.67267 8.45953 2.48396 8.125 3.43748 8.125C4.391 8.125 5.20229 8.45953 5.87136 9.1286C6.54042 9.79767 6.87495 10.609 6.87495 11.5625C6.87495 11.6362 6.87295 11.6979 6.86894 11.7476C6.86494 11.7973 6.86293 11.8469 6.86293 11.8966L10.452 13.1442C10.7965 12.5064 11.2697 11.9592 11.8714 11.5024C12.4732 11.0457 13.1635 10.7524 13.9423 10.6226V6.78601C13.1378 6.59691 12.488 6.19027 11.9928 5.56607C11.4976 4.94187 11.25 4.23234 11.25 3.43748C11.25 2.48396 11.5845 1.67267 12.2536 1.0036C12.9227 0.334533 13.734 0 14.6875 0C15.641 0 16.4523 0.334533 17.1214 1.0036C17.7904 1.67267 18.125 2.48396 18.125 3.43748C18.125 4.23234 17.8742 4.94187 17.3726 5.56607C16.871 6.19027 16.2243 6.59691 15.4327 6.78601V10.6226C16.2115 10.7524 16.8998 11.0457 17.4975 11.5024C18.0953 11.9592 18.5704 12.5064 18.923 13.1442L22.512 11.8966C22.504 11.8389 22.5 11.7872 22.5 11.7416C22.5 11.6959 22.5 11.6362 22.5 11.5625C22.5 10.609 22.8345 9.79767 23.5036 9.1286C24.1727 8.45953 24.984 8.125 25.9375 8.125C26.891 8.125 27.7023 8.45953 28.3714 9.1286C29.0404 9.79767 29.375 10.609 29.375 11.5625C29.375 12.516 29.0404 13.3273 28.3714 13.9964C27.7023 14.6654 26.891 15 25.9375 15C25.3109 15 24.7376 14.8477 24.2175 14.5432C23.6975 14.2387 23.2868 13.8341 22.9856 13.3293L19.3845 14.5216C19.5015 15.2299 19.4615 15.9311 19.2643 16.625C19.0672 17.3189 18.7091 17.9511 18.1898 18.5216L20.6682 21.5865C20.8974 21.4824 21.141 21.4002 21.399 21.3401C21.657 21.28 21.9199 21.25 22.1875 21.25C23.141 21.25 23.9523 21.5845 24.6214 22.2536C25.2904 22.9227 25.625 23.734 25.625 24.6875C25.625 25.641 25.2904 26.4523 24.6214 27.1214C23.9523 27.7904 23.141 28.125 22.1875 28.125C21.234 28.125 20.4227 27.7904 19.7536 27.1214C19.0845 26.4523 18.75 25.641 18.75 24.6875C18.75 24.2949 18.8137 23.9158 18.9411 23.5505C19.0685 23.1851 19.2588 22.8501 19.512 22.5457L17.0336 19.4374C16.3237 19.8605 15.5404 20.072 14.6839 20.072C13.8273 20.072 13.0401 19.8605 12.3221 19.4374L9.86293 22.5457C10.1081 22.8501 10.2964 23.1851 10.4278 23.5505C10.5592 23.9158 10.625 24.2949 10.625 24.6875C10.625 25.641 10.2904 26.4523 9.62136 27.1214C8.95229 27.7904 8.141 28.125 7.18748 28.125ZM3.43748 13.125C3.87178 13.125 4.24077 12.9732 4.54446 12.6695C4.84815 12.3658 5 11.9968 5 11.5625C5 11.1282 4.84815 10.7592 4.54446 10.4555C4.24077 10.1518 3.87178 9.99995 3.43748 9.99995C3.00318 9.99995 2.63418 10.1518 2.33049 10.4555C2.0268 10.7592 1.87495 11.1282 1.87495 11.5625C1.87495 11.9968 2.0268 12.3658 2.33049 12.6695C2.63418 12.9732 3.00318 13.125 3.43748 13.125ZM7.18748 26.25C7.62178 26.25 7.99077 26.0982 8.29446 25.7945C8.59816 25.4908 8.75 25.1218 8.75 24.6875C8.75 24.2532 8.59816 23.8842 8.29446 23.5805C7.99077 23.2768 7.62178 23.125 7.18748 23.125C6.75318 23.125 6.38418 23.2768 6.08049 23.5805C5.7768 23.8842 5.62495 24.2532 5.62495 24.6875C5.62495 25.1218 5.7768 25.4908 6.08049 25.7945C6.38418 26.0982 6.75318 26.25 7.18748 26.25ZM14.6875 5C15.1218 5 15.4908 4.84815 15.7945 4.54446C16.0982 4.24077 16.25 3.87178 16.25 3.43748C16.25 3.00318 16.0982 2.63418 15.7945 2.33049C15.4908 2.0268 15.1218 1.87495 14.6875 1.87495C14.2532 1.87495 13.8842 2.0268 13.5805 2.33049C13.2768 2.63418 13.125 3.00318 13.125 3.43748C13.125 3.87178 13.2768 4.24077 13.5805 4.54446C13.8842 4.84815 14.2532 5 14.6875 5ZM14.6875 18.1971C15.4904 18.1971 16.1718 17.917 16.7319 17.3569C17.292 16.7968 17.5721 16.1154 17.5721 15.3125C17.5721 14.5096 17.292 13.8281 16.7319 13.268C16.1718 12.7079 15.4904 12.4279 14.6875 12.4279C13.8846 12.4279 13.2031 12.7079 12.643 13.268C12.0829 13.8281 11.8029 14.5096 11.8029 15.3125C11.8029 16.1154 12.0829 16.7968 12.643 17.3569C13.2031 17.917 13.8846 18.1971 14.6875 18.1971ZM22.1875 26.25C22.6218 26.25 22.9908 26.0982 23.2945 25.7945C23.5982 25.4908 23.75 25.1218 23.75 24.6875C23.75 24.2532 23.5982 23.8842 23.2945 23.5805C22.9908 23.2768 22.6218 23.125 22.1875 23.125C21.7532 23.125 21.3842 23.2768 21.0805 23.5805C20.7768 23.8842 20.625 24.2532 20.625 24.6875C20.625 25.1218 20.7768 25.4908 21.0805 25.7945C21.3842 26.0982 21.7532 26.25 22.1875 26.25ZM25.9375 13.125C26.3718 13.125 26.7408 12.9732 27.0445 12.6695C27.3482 12.3658 27.5 11.9968 27.5 11.5625C27.5 11.1282 27.3482 10.7592 27.0445 10.4555C26.7408 10.1518 26.3718 9.99995 25.9375 9.99995C25.5032 9.99995 25.1342 10.1518 24.8305 10.4555C24.5268 10.7592 24.375 11.1282 24.375 11.5625C24.375 11.9968 24.5268 12.3658 24.8305 12.6695C25.1342 12.9732 25.5032 13.125 25.9375 13.125Z" fill="#E8612D"/>
</svg>
