<svg width="16" height="20" viewBox="0 0 16 20" fill="none" xmlns="http://www.w3.org/2000/svg">
<path d="M2 20C1.45 20 0.979167 19.8042 0.5875 19.4125C0.195833 19.0208 0 18.55 0 18V2C0 1.45 0.195833 0.979167 0.5875 0.5875C0.979167 0.195833 1.45 0 2 0H14C14.55 0 15.0208 0.195833 15.4125 0.5875C15.8042 0.979167 16 1.45 16 2V18C16 18.55 15.8042 19.0208 15.4125 19.4125C15.0208 19.8042 14.55 20 14 20H2ZM2 18H14V2H2V18ZM8 17C9.38333 17 10.5625 16.5125 11.5375 15.5375C12.5125 14.5625 13 13.3833 13 12C13 10.6167 12.5125 9.4375 11.5375 8.4625C10.5625 7.4875 9.38333 7 8 7C6.61667 7 5.4375 7.4875 4.4625 8.4625C3.4875 9.4375 3 10.6167 3 12C3 13.3833 3.4875 14.5625 4.4625 15.5375C5.4375 16.5125 6.61667 17 8 17ZM8 15.3C7.56667 15.3 7.14583 15.2208 6.7375 15.0625C6.32917 14.9042 5.96667 14.6667 5.65 14.35L10.35 9.65C10.6667 9.96667 10.9042 10.3292 11.0625 10.7375C11.2208 11.1458 11.3 11.5667 11.3 12C11.3 12.9167 10.9792 13.6958 10.3375 14.3375C9.69583 14.9792 8.91667 15.3 8 15.3ZM4 5C4.28333 5 4.52083 4.90417 4.7125 4.7125C4.90417 4.52083 5 4.28333 5 4C5 3.71667 4.90417 3.47917 4.7125 3.2875C4.52083 3.09583 4.28333 3 4 3C3.71667 3 3.47917 3.09583 3.2875 3.2875C3.09583 3.47917 3 3.71667 3 4C3 4.28333 3.09583 4.52083 3.2875 4.7125C3.47917 4.90417 3.71667 5 4 5ZM7 5C7.28333 5 7.52083 4.90417 7.7125 4.7125C7.90417 4.52083 8 4.28333 8 4C8 3.71667 7.90417 3.47917 7.7125 3.2875C7.52083 3.09583 7.28333 3 7 3C6.71667 3 6.47917 3.09583 6.2875 3.2875C6.09583 3.47917 6 3.71667 6 4C6 4.28333 6.09583 4.52083 6.2875 4.7125C6.47917 4.90417 6.71667 5 7 5ZM2 18V2V18Z" fill="white"/>
</svg>
