<svg width="18" height="19" viewBox="0 0 18 19" fill="none" xmlns="http://www.w3.org/2000/svg">
<path d="M6 19V14C4.96667 13.9167 3.95417 13.8 2.9625 13.65C1.97083 13.5 0.983333 13.2833 0 13L0.5 11C1.88333 11.3833 3.28333 11.6458 4.7 11.7875C6.11667 11.9292 7.55 12 9 12C10.4333 12 11.8583 11.9292 13.275 11.7875C14.6917 11.6458 16.1 11.3833 17.5 11L18 13C17 13.2833 16.0042 13.5 15.0125 13.65C14.0208 13.8 13.0167 13.9167 12 14V19H6ZM9 11C8.43333 11 7.95833 10.8083 7.575 10.425C7.19167 10.0417 7 9.56667 7 9C7 8.45 7.19167 7.97917 7.575 7.5875C7.95833 7.19583 8.43333 7 9 7C9.55 7 10.0208 7.19583 10.4125 7.5875C10.8042 7.97917 11 8.45 11 9C11 9.56667 10.8042 10.0417 10.4125 10.425C10.0208 10.8083 9.55 11 9 11ZM1.5 8C1.06667 8 0.708333 7.85833 0.425 7.575C0.141667 7.29167 0 6.93333 0 6.5C0 6.08333 0.141667 5.72917 0.425 5.4375C0.708333 5.14583 1.06667 5 1.5 5C1.91667 5 2.27083 5.14583 2.5625 5.4375C2.85417 5.72917 3 6.08333 3 6.5C3 6.93333 2.85417 7.29167 2.5625 7.575C2.27083 7.85833 1.91667 8 1.5 8ZM16.5 8C16.0667 8 15.7083 7.85833 15.425 7.575C15.1417 7.29167 15 6.93333 15 6.5C15 6.08333 15.1417 5.72917 15.425 5.4375C15.7083 5.14583 16.0667 5 16.5 5C16.9167 5 17.2708 5.14583 17.5625 5.4375C17.8542 5.72917 18 6.08333 18 6.5C18 6.93333 17.8542 7.29167 17.5625 7.575C17.2708 7.85833 16.9167 8 16.5 8ZM4.25 4.25C3.81667 4.25 3.45833 4.10833 3.175 3.825C2.89167 3.54167 2.75 3.18333 2.75 2.75C2.75 2.33333 2.89167 1.97917 3.175 1.6875C3.45833 1.39583 3.81667 1.25 4.25 1.25C4.66667 1.25 5.02083 1.39583 5.3125 1.6875C5.60417 1.97917 5.75 2.33333 5.75 2.75C5.75 3.18333 5.60417 3.54167 5.3125 3.825C5.02083 4.10833 4.66667 4.25 4.25 4.25ZM13.75 4.25C13.3167 4.25 12.9583 4.10833 12.675 3.825C12.3917 3.54167 12.25 3.18333 12.25 2.75C12.25 2.33333 12.3917 1.97917 12.675 1.6875C12.9583 1.39583 13.3167 1.25 13.75 1.25C14.1667 1.25 14.5208 1.39583 14.8125 1.6875C15.1042 1.97917 15.25 2.33333 15.25 2.75C15.25 3.18333 15.1042 3.54167 14.8125 3.825C14.5208 4.10833 14.1667 4.25 13.75 4.25ZM9 3C8.56667 3 8.20833 2.85833 7.925 2.575C7.64167 2.29167 7.5 1.93333 7.5 1.5C7.5 1.08333 7.64167 0.729167 7.925 0.4375C8.20833 0.145833 8.56667 0 9 0C9.41667 0 9.77083 0.145833 10.0625 0.4375C10.3542 0.729167 10.5 1.08333 10.5 1.5C10.5 1.93333 10.3542 2.29167 10.0625 2.575C9.77083 2.85833 9.41667 3 9 3Z" fill="white"/>
</svg>
