<svg width="19" height="18" viewBox="0 0 19 18" fill="none" xmlns="http://www.w3.org/2000/svg">
<path fill-rule="evenodd" clip-rule="evenodd" d="M4.65629 3.23462V2.06462C4.65643 1.64564 4.80688 1.24062 5.0803 0.923155C5.35372 0.605694 5.73196 0.396863 6.14629 0.334615L7.36629 0.151615C8.71878 -0.0505385 10.0938 -0.0505385 11.4463 0.151615L12.6663 0.334615C13.0806 0.396863 13.4589 0.605694 13.7323 0.923155C14.0057 1.24062 14.1562 1.64564 14.1563 2.06462V3.23462L15.8703 3.37262C16.508 3.42413 17.11 3.68798 17.5801 4.12198C18.0501 4.55597 18.3611 5.13505 18.4633 5.76662C18.929 8.63919 18.929 11.568 18.4633 14.4406C18.3611 15.0722 18.0501 15.6513 17.5801 16.0853C17.11 16.5192 16.508 16.7831 15.8703 16.8346L13.9983 16.9846C10.9419 17.2316 7.87064 17.2316 4.81429 16.9846L2.94229 16.8346C2.30459 16.7831 1.70258 16.5192 1.23251 16.0853C0.762436 15.6513 0.451457 15.0722 0.349291 14.4406C-0.11643 11.568 -0.11643 8.63919 0.349291 5.76662C0.45166 5.13523 0.762728 4.55638 1.23278 4.12259C1.70283 3.68879 2.30473 3.42508 2.94229 3.37362L4.65629 3.23462ZM7.58929 1.63462C8.79394 1.45469 10.0186 1.45469 11.2233 1.63462L12.4433 1.81762C12.5025 1.82647 12.5565 1.85627 12.5956 1.9016C12.6347 1.94692 12.6562 2.00477 12.6563 2.06462V3.12962C10.4914 3.00598 8.32119 3.00598 6.15629 3.12962V2.06362C6.15635 2.00377 6.17788 1.94592 6.21696 1.9006C6.25605 1.85527 6.3101 1.82547 6.36929 1.81662L7.58929 1.63462ZM4.93529 4.71662C7.91129 4.47662 10.9013 4.47662 13.8773 4.71662L15.7493 4.86862C16.0526 4.89289 16.3391 5.0182 16.5628 5.22452C16.7865 5.43083 16.9346 5.70621 16.9833 6.00662C17.0453 6.39128 17.0986 6.77728 17.1433 7.16462C14.7362 8.3494 12.0892 8.96554 9.40629 8.96554C6.72342 8.96554 4.07638 8.3494 1.66929 7.16462C1.71329 6.77795 1.76662 6.39195 1.82929 6.00662C1.878 5.70621 2.02605 5.43083 2.24977 5.22452C2.47349 5.0182 2.75994 4.89289 3.06329 4.86862L4.93529 4.71662ZM1.53529 8.76062C4.00717 9.88428 6.691 10.4657 9.40629 10.4657C12.1216 10.4657 14.8054 9.88428 17.2773 8.76062C17.3731 10.5792 17.2745 12.4029 16.9833 14.2006C16.9348 14.5012 16.7868 14.7768 16.5631 14.9833C16.3394 15.1898 16.0528 15.3153 15.7493 15.3396L13.8773 15.4896C10.9013 15.7296 7.91129 15.7296 4.93529 15.4896L3.06329 15.3396C2.75979 15.3153 2.47323 15.1898 2.2495 14.9833C2.02576 14.7768 1.87779 14.5012 1.82929 14.2006C1.53829 12.4006 1.43929 10.5766 1.53529 8.76062Z" fill="#E8612D"/>
</svg>
