<svg width="24" height="24" viewBox="0 0 24 24" fill="none" xmlns="http://www.w3.org/2000/svg">
<path d="M11.861 2.39023C12.3449 2.06779 12.912 1.89292 13.4935 1.88688C14.0749 1.88084 14.6455 2.04391 15.136 2.35623L19.29 5.00023H21C21.2652 5.00023 21.5196 5.10559 21.7071 5.29312C21.8946 5.48066 22 5.73501 22 6.00023V15.0002C22 15.2654 21.8946 15.5198 21.7071 15.7073C21.5196 15.8949 21.2652 16.0002 21 16.0002H19.48C19.5121 16.4872 19.4091 16.9735 19.1823 17.4057C18.9556 17.8378 18.6139 18.1989 18.195 18.4492L13.102 21.5052C12.7891 21.6928 12.4308 21.7913 12.0659 21.7899C11.701 21.7885 11.3435 21.6873 11.032 21.4972C10.6812 21.8072 10.2327 21.9843 9.76472 21.9976C9.29675 22.011 8.83892 21.8597 8.471 21.5702L3.331 17.5312C2.97171 17.2493 2.71972 16.8529 2.61693 16.4079C2.51415 15.9629 2.56675 15.4962 2.766 15.0852C2.52721 14.898 2.33415 14.6589 2.20143 14.386C2.06872 14.1132 1.99984 13.8137 2 13.5102V6.00023C2 5.73501 2.10536 5.48066 2.29289 5.29312C2.48043 5.10559 2.73478 5.00023 3 5.00023H7.947L11.861 2.39023ZM4.173 13.6462L4.865 13.0412C5.45638 12.5239 6.22711 12.2593 7.01154 12.3041C7.79596 12.349 8.53148 12.6999 9.06 13.2812L11.762 16.2532C12.1857 16.7193 12.452 17.3069 12.5231 17.9328C12.5941 18.5587 12.4664 19.191 12.158 19.7402L17.167 16.7352C17.2976 16.656 17.3967 16.534 17.4474 16.39C17.498 16.2459 17.4972 16.0887 17.445 15.9452L13.018 9.74723C12.8968 9.57736 12.7254 9.44968 12.528 9.38208C12.3306 9.31447 12.1169 9.31033 11.917 9.37023L9.431 10.1152C8.91221 10.2708 8.36097 10.2831 7.83577 10.1507C7.31058 10.0183 6.83102 9.74618 6.448 9.36323L6.155 9.07123C5.88925 8.80552 5.70374 8.47031 5.61973 8.10403C5.53572 7.73774 5.55661 7.35519 5.68 7.00023H4V13.5102L4.173 13.6462ZM14.063 4.04423C13.8993 3.93994 13.7088 3.88555 13.5147 3.88768C13.3206 3.88981 13.1314 3.94837 12.97 4.05623L7.57 7.65623L7.862 7.94923C7.98981 8.07688 8.14981 8.16753 8.325 8.21155C8.50019 8.25557 8.68403 8.25131 8.857 8.19923L11.342 7.45423C11.9416 7.27442 12.5825 7.28669 13.1748 7.48933C13.7671 7.69196 14.2812 8.07481 14.645 8.58423L18.515 14.0002H20V7.00023H19.291C18.9105 7.00018 18.5379 6.8916 18.217 6.68723L14.063 4.04423ZM6.181 14.5452L4.565 15.9592L9.705 19.9982L10.41 18.7662C10.5148 18.5827 10.5587 18.3708 10.5355 18.1608C10.5123 17.9507 10.4232 17.7535 10.281 17.5972L7.58 14.6252C7.40384 14.4315 7.15873 14.3147 6.89734 14.2997C6.63595 14.2847 6.37811 14.3729 6.181 14.5452Z" fill="#E8612D"/>
</svg>
