<svg width="10" height="12" viewBox="0 0 10 12" fill="none" xmlns="http://www.w3.org/2000/svg">
<path d="M0.875 11.6667V7.29167H0V4.08333C0 3.7625 0.114236 3.48785 0.342708 3.25938C0.571181 3.0309 0.845833 2.91667 1.16667 2.91667H2.91667C3.2375 2.91667 3.51215 3.0309 3.74062 3.25938C3.9691 3.48785 4.08333 3.7625 4.08333 4.08333V7.29167H3.20833V11.6667H0.875ZM2.04167 2.33333C1.72083 2.33333 1.44618 2.2191 1.21771 1.99063C0.989236 1.76215 0.875 1.4875 0.875 1.16667C0.875 0.845833 0.989236 0.571181 1.21771 0.342708C1.44618 0.114236 1.72083 0 2.04167 0C2.3625 0 2.63715 0.114236 2.86562 0.342708C3.0941 0.571181 3.20833 0.845833 3.20833 1.16667C3.20833 1.4875 3.0941 1.76215 2.86562 1.99063C2.63715 2.2191 2.3625 2.33333 2.04167 2.33333ZM6.41667 11.6667V8.16667H4.66667L6.15417 3.70417C6.23194 3.45139 6.37535 3.25694 6.58437 3.12083C6.7934 2.98472 7.02917 2.91667 7.29167 2.91667C7.55417 2.91667 7.78993 2.98472 7.99896 3.12083C8.20799 3.25694 8.35139 3.45139 8.42917 3.70417L9.91667 8.16667H8.16667V11.6667H6.41667ZM7.29167 2.33333C6.97083 2.33333 6.69618 2.2191 6.46771 1.99063C6.23924 1.76215 6.125 1.4875 6.125 1.16667C6.125 0.845833 6.23924 0.571181 6.46771 0.342708C6.69618 0.114236 6.97083 0 7.29167 0C7.6125 0 7.88715 0.114236 8.11563 0.342708C8.3441 0.571181 8.45833 0.845833 8.45833 1.16667C8.45833 1.4875 8.3441 1.76215 8.11563 1.99063C7.88715 2.2191 7.6125 2.33333 7.29167 2.33333Z" fill="#A1A1AA"/>
</svg>
