<svg width="13" height="22" viewBox="0 0 13 22" fill="none" xmlns="http://www.w3.org/2000/svg">
<path d="M1 21.5L3.8 7.4L2 8.1V11.5H0V6.8L5.05 4.65C5.28333 4.55 5.52917 4.49167 5.7875 4.475C6.04583 4.45833 6.29167 4.49167 6.525 4.575C6.75833 4.65833 6.97917 4.775 7.1875 4.925C7.39583 5.075 7.56667 5.26667 7.7 5.5L8.7 7.1C9.13333 7.8 9.72083 8.375 10.4625 8.825C11.2042 9.275 12.05 9.5 13 9.5V11.5C11.8333 11.5 10.7917 11.2583 9.875 10.775C8.95833 10.2917 8.175 9.675 7.525 8.925L6.9 12L9 14V21.5H7V15L4.9 13.4L3.1 21.5H1ZM7.5 4C6.95 4 6.47917 3.80417 6.0875 3.4125C5.69583 3.02083 5.5 2.55 5.5 2C5.5 1.45 5.69583 0.979167 6.0875 0.5875C6.47917 0.195833 6.95 0 7.5 0C8.05 0 8.52083 0.195833 8.9125 0.5875C9.30417 0.979167 9.5 1.45 9.5 2C9.5 2.55 9.30417 3.02083 8.9125 3.4125C8.52083 3.80417 8.05 4 7.5 4Z" fill="#94A3B8"/>
</svg>
