<svg width="12" height="9" viewBox="0 0 12 9" fill="none" xmlns="http://www.w3.org/2000/svg">
<path d="M0 8.16667V4.66667C0 4.40417 0.0534722 4.16597 0.160417 3.95208C0.267361 3.73819 0.408333 3.54861 0.583333 3.38333V1.75C0.583333 1.26389 0.753472 0.850694 1.09375 0.510417C1.43403 0.170139 1.84722 0 2.33333 0H4.66667C4.89028 0 5.09931 0.0413194 5.29375 0.123958C5.48819 0.206597 5.66806 0.320833 5.83333 0.466667C5.99861 0.320833 6.17847 0.206597 6.37292 0.123958C6.56736 0.0413194 6.77639 0 7 0H9.33333C9.81944 0 10.2326 0.170139 10.5729 0.510417C10.9132 0.850694 11.0833 1.26389 11.0833 1.75V3.38333C11.2583 3.54861 11.3993 3.73819 11.5063 3.95208C11.6132 4.16597 11.6667 4.40417 11.6667 4.66667V8.16667H10.5V7H1.16667V8.16667H0ZM6.41667 2.91667H9.91667V1.75C9.91667 1.58472 9.86076 1.44618 9.74896 1.33438C9.63715 1.22257 9.49861 1.16667 9.33333 1.16667H7C6.83472 1.16667 6.69618 1.22257 6.58437 1.33438C6.47257 1.44618 6.41667 1.58472 6.41667 1.75V2.91667ZM1.75 2.91667H5.25V1.75C5.25 1.58472 5.1941 1.44618 5.08229 1.33438C4.97049 1.22257 4.83194 1.16667 4.66667 1.16667H2.33333C2.16806 1.16667 2.02951 1.22257 1.91771 1.33438C1.8059 1.44618 1.75 1.58472 1.75 1.75V2.91667ZM1.16667 5.83333H10.5V4.66667C10.5 4.50139 10.4441 4.36285 10.3323 4.25104C10.2205 4.13924 10.0819 4.08333 9.91667 4.08333H1.75C1.58472 4.08333 1.44618 4.13924 1.33438 4.25104C1.22257 4.36285 1.16667 4.50139 1.16667 4.66667V5.83333ZM10.5 5.83333H1.16667C1.16667 5.83333 1.22257 5.83333 1.33438 5.83333C1.44618 5.83333 1.58472 5.83333 1.75 5.83333H9.91667C10.0819 5.83333 10.2205 5.83333 10.3323 5.83333C10.4441 5.83333 10.5 5.83333 10.5 5.83333Z" fill="#A1A1AA"/>
</svg>
