<svg width="12" height="7" viewBox="0 0 12 7" fill="none" xmlns="http://www.w3.org/2000/svg">
<path d="M1.16667 7C0.845833 7 0.571181 6.88576 0.342708 6.65729C0.114236 6.42882 0 6.15417 0 5.83333V1.16667C0 0.845833 0.114236 0.571181 0.342708 0.342708C0.571181 0.114236 0.845833 0 1.16667 0H10.5C10.8208 0 11.0955 0.114236 11.324 0.342708C11.5524 0.571181 11.6667 0.845833 11.6667 1.16667V5.83333C11.6667 6.15417 11.5524 6.42882 11.324 6.65729C11.0955 6.88576 10.8208 7 10.5 7H1.16667ZM1.16667 5.83333H10.5V1.16667H8.75V3.5H7.58333V1.16667H6.41667V3.5H5.25V1.16667H4.08333V3.5H2.91667V1.16667H1.16667V5.83333ZM2.91667 3.5H4.08333H2.91667ZM5.25 3.5H6.41667H5.25ZM7.58333 3.5H8.75H7.58333Z" fill="#A1A1AA"/>
</svg>
